<svg xmlns="http://www.w3.org/2000/svg" viewBox="0 0 190 100" role="img" aria-label="United States">
  <rect width="190" height="100" fill="#B22234"/>
  <g fill="#fff">
    <rect y="0" width="190" height="7.7"/>
    <rect y="15.4" width="190" height="7.7"/>
    <rect y="30.8" width="190" height="7.7"/>
    <rect y="46.2" width="190" height="7.7"/>
    <rect y="61.6" width="190" height="7.7"/>
    <rect y="77" width="190" height="7.7"/>
    <rect y="92.3" width="190" height="7.7"/>
  </g>
  <rect width="76" height="53.8" fill="#3C3B6E"/>
  <g fill="#fff" font-size="8" font-family="serif">
    <text x="8" y="12">★</text><text x="20" y="12">★</text><text x="32" y="12">★</text><text x="44" y="12">★</text><text x="56" y="12">★</text><text x="68" y="12">★</text>
    <text x="14" y="24">★</text><text x="26" y="24">★</text><text x="38" y="24">★</text><text x="50" y="24">★</text><text x="62" y="24">★</text>
    <text x="8" y="36">★</text><text x="20" y="36">★</text><text x="32" y="36">★</text><text x="44" y="36">★</text><text x="56" y="36">★</text><text x="68" y="36">★</text>
    <text x="14" y="48">★</text><text x="26" y="48">★</text><text x="38" y="48">★</text><text x="50" y="48">★</text><text x="62" y="48">★</text>
  </g>
</svg>