<?xml version="1.0" encoding="UTF-8"?>
<svg xmlns="http://www.w3.org/2000/svg" viewBox="0 0 128 64" role="img" aria-label="Heavy mortar nest">
  <rect width="128" height="64" fill="#e8e6e0"/>
  <g fill="#6b7058"><path d="M14 52 Q38 32 64 30 Q90 32 114 52 Z"/></g>
  <g fill="#5a5d52"><rect x="18" y="42" width="14" height="9"/><rect x="36" y="38" width="16" height="11"/><rect x="56" y="34" width="18" height="13"/><rect x="76" y="38" width="16" height="11"/><rect x="96" y="42" width="14" height="9"/></g>
  <g fill="#2a2a28"><ellipse cx="64" cy="48" rx="12" ry="3.5"/><rect x="56" y="46" width="16" height="2.5"/></g>
  <g fill="#3d4038"><rect x="50" y="24" width="6" height="18" rx="1" transform="rotate(-38 53 33)"/></g>
  <g fill="#2a2a28"><rect x="46" y="40" width="3.5" height="10" transform="rotate(-28 47 45)"/><rect x="78" y="40" width="3.5" height="10" transform="rotate(28 79 45)"/></g>
  <g fill="#5a5d52"><rect x="88" y="42" width="12" height="7"/><rect x="28" y="44" width="11" height="6"/><rect x="100" y="46" width="8" height="5"/></g>
</svg>