<?xml version="1.0" encoding="UTF-8"?>
<svg xmlns="http://www.w3.org/2000/svg" viewBox="0 0 128 64" role="img" aria-label="Mortar nest">
  <rect width="128" height="64" fill="#e8e6e0"/>
  <g fill="#6b7058"><path d="M20 52 Q40 38 64 36 Q88 38 108 52 Z"/></g>
  <g fill="#5a5d52"><rect x="24" y="44" width="12" height="7"/><rect x="40" y="40" width="14" height="9"/><rect x="58" y="38" width="16" height="10"/><rect x="76" y="40" width="14" height="9"/><rect x="92" y="44" width="12" height="7"/></g>
  <g fill="#2a2a28"><ellipse cx="64" cy="48" rx="10" ry="3"/><rect x="58" y="46" width="12" height="2"/></g>
  <g fill="#3d4038"><rect x="52" y="30" width="5" height="14" rx="1" transform="rotate(-32 54 37)"/></g>
  <g fill="#2a2a28"><rect x="48" y="42" width="3" height="8" transform="rotate(-25 49 46)"/><rect x="76" y="42" width="3" height="8" transform="rotate(25 77 46)"/></g>
  <g fill="#5a5d52"><rect x="86" y="44" width="10" height="6"/><rect x="32" y="46" width="9" height="5"/></g>
</svg>